<?xml version="1.0" standalone="no"?>
<!DOCTYPE svg PUBLIC "-//W3C//DTD SVG 20010904//EN"
 "http://www.w3.org/TR/2001/REC-SVG-20010904/DTD/svg10.dtd">
<svg version="1.0" xmlns="http://www.w3.org/2000/svg"
 width="1200.000000pt" height="1200.000000pt" viewBox="0 0 1200.000000 1200.000000"
 preserveAspectRatio="xMidYMid meet">
<metadata>
Created by potrace 1.11, written by Peter Selinger 2001-2013
</metadata>
<g transform="translate(0.000000,1200.000000) scale(0.100000,-0.100000)"
fill="#000000" stroke="none">
<path d="M8377 11564 c-1 -1 -47 -5 -102 -8 -227 -16 -397 -45 -604 -102 -182
-51 -297 -95 -491 -188 -130 -62 -317 -175 -425 -258 -226 -173 -458 -395
-609 -583 -256 -320 -443 -684 -545 -1060 -16 -60 -32 -127 -35 -149 -4 -21
-8 -41 -10 -45 -2 -3 -7 -28 -10 -56 -4 -27 -9 -59 -12 -70 -5 -25 -12 -77
-21 -180 -10 -103 -10 -529 0 -620 7 -61 35 -251 42 -280 1 -5 5 -28 10 -50
18 -94 85 -328 114 -400 5 -11 21 -51 37 -90 134 -336 364 -676 654 -965 224
-225 335 -313 620 -495 181 -116 568 -273 790 -320 273 -59 443 -78 695 -79
301 0 504 25 780 95 227 58 496 171 735 307 37 21 211 136 304 202 58 40 251
208 331 287 144 142 287 317 387 473 19 30 48 76 64 101 55 85 182 352 233
489 50 135 127 394 137 460 3 19 7 43 10 52 15 51 29 182 27 263 -1 98 -49
180 -122 211 -66 29 -130 14 -276 -61 -71 -37 -134 -71 -140 -75 -5 -4 -32
-20 -60 -35 -59 -32 -132 -74 -308 -179 -71 -42 -132 -76 -138 -76 -5 0 -9 -4
-9 -10 0 -5 -4 -10 -10 -10 -5 0 -62 -32 -127 -72 -65 -39 -127 -76 -138 -82
-11 -6 -60 -36 -108 -66 -48 -30 -100 -62 -115 -71 -79 -47 -483 -295 -520
-320 -25 -16 -50 -25 -59 -22 -9 4 -170 92 -357 196 -188 104 -368 204 -401
222 -33 17 -112 61 -175 97 -63 36 -149 83 -190 106 -41 22 -94 51 -117 64
l-43 23 0 751 0 750 103 59 c56 32 127 73 157 91 89 53 700 404 760 437 30 16
66 38 80 47 14 9 75 45 135 79 61 34 126 71 145 83 19 11 157 90 305 176 149
85 282 164 297 175 101 74 113 226 27 319 -20 21 -87 66 -184 125 -118 71
-458 204 -583 228 -10 2 -47 10 -83 18 -86 21 -157 36 -199 42 -19 3 -42 8
-50 10 -8 2 -44 7 -80 10 -36 4 -67 8 -70 10 -14 8 -444 26 -453 19z"/>
<path d="M2993 4988 c-2427 -2429 -2361 -2360 -2429 -2515 -23 -51 -43 -123
-60 -213 -11 -63 -6 -224 11 -304 44 -213 83 -267 515 -707 508 -517 501 -511
626 -581 129 -73 249 -102 414 -102 188 0 312 35 465 133 56 35 547 521 2387
2360 l2316 2316 -31 15 c-18 9 -48 22 -67 29 -137 54 -412 206 -574 318 -211
146 -467 371 -621 547 -232 264 -406 525 -545 821 -32 66 -63 137 -71 158 -7
20 -15 37 -19 37 -3 0 -1045 -1041 -2317 -2312z m-321 -2035 c111 -52 202
-153 237 -264 61 -192 -41 -419 -229 -510 -229 -111 -504 9 -589 257 -16 46
-19 78 -17 145 3 75 8 96 39 160 54 111 139 189 250 230 41 15 72 19 147 16
82 -2 104 -7 162 -34z"/>
</g>
</svg>
